<svg id="Capa_1" enable-background="new 0 0 512 512" height="512" viewBox="0 0 512 512" width="512" xmlns="http://www.w3.org/2000/svg"><g><path d="m272.504 183.097v-48.091h-29.942v48.091h-128.777v72.903h29.942v-42.961h274.409v101.733h29.942v-131.675z" fill="#17799c"/><path d="m272.504 183.097v-48.091h-15.776v78.033h161.408v101.733h29.942v-131.675z" fill="#0b495d"/><g><path d="m436.775 463.568h-82.183v-163.767h82.183z" fill="#7be2f6"/></g><g><path d="m436.775 512h-82.183v-53.463h82.183z" fill="#edf5ff"/></g><g><path d="m511.622 463.568h-78.515v-163.767h78.515z" fill="#55d0f9"/></g><g><path d="m511.622 512h-78.515v-53.463h78.515z" fill="#d6e8fd"/></g><g><path d="m131.601 431.505h-39.295l-8.138 32.043c-2.768 10.898-12.554 18.51-23.798 18.51h-13.977v29.942h85.208z" fill="#d6e8fd"/><g><path d="m134.066 395.199h-133.688v-147.181h128.378z" fill="#7be2f6"/></g><g><path d="m134.066 452.461h-133.688v-58.839l133.688.174z" fill="#edf5ff"/></g><g><path d="m128.756 248.018h127.622v147.181h-127.622z" fill="#55d0f9"/></g><g><path d="m211.118 482.058h-13.308c-11.244 0-21.031-7.612-23.798-18.51l-8.138-32.043h-37.118v80.495h82.363v-29.942z" fill="#b6dcfe"/></g><g><path d="m256.378 393.796-127.622-.087v58.752h127.622z" fill="#d6e8fd"/></g></g><g><path d="m358.95 82.118h-12.924c5.677-11.195 3.844-25.22-5.514-34.578-10.449-10.449-26.718-11.518-38.367-3.22-.614-24.58-20.717-44.32-45.445-44.32-1.53 0-3.042.078-4.534.226v144.957h106.784c17.415 0 31.533-14.117 31.533-31.532s-14.118-31.533-31.533-31.533z" fill="#d6e8fd"/><path d="m200 54.232h11.224v-8.757c0-25.115 20.36-45.475 45.476-45.475.01 0 .019.001.029.001v145.182h-56.729c-25.115 0-45.475-20.36-45.475-45.475 0-25.116 20.36-45.476 45.475-45.476z" fill="#edf5ff"/></g></g></svg>