<svg id="Layer_1" enable-background="new 0 0 512 512" height="512" viewBox="0 0 512 512" width="512" xmlns="http://www.w3.org/2000/svg"><g><path d="m82 392.042v-154.083c0-55.206 44.644-99.959 99.716-99.959h-60.716c-55.229 0-100 44.771-100 100v154c0 55.228 44.771 100 100 100h60.716c-55.072 0-99.716-44.753-99.716-99.958z" fill="#cee1f2"/><path d="m392 512h-272.02c-66.157 0-119.98-53.822-119.98-119.979v-154.021c0-66.168 53.832-120 120-120h272c66.168 0 120 53.832 120 120v154c0 66.169-53.831 120-120 120zm-272-354c-44.112 0-80 35.888-80 80v154.021c0 44.1 35.879 79.979 79.98 79.979h272.02c44.112 0 80-35.888 80-80v-154c0-44.112-35.888-80-80-80zm242 254v-194c0-11.046-8.954-20-20-20s-20 8.954-20 20v194c0 11.046 8.954 20 20 20s20-8.954 20-20z" fill="#0023c4"/><path d="m417 270c-13.807 0-25-11.193-25-25s11.193-25 25-25 25 11.193 25 25-11.193 25-25 25m0 80c13.807 0 25-11.193 25-25s-11.193-25-25-25-25 11.193-25 25 11.193 25 25 25m-118.297-269.59c.035-.035.071-.071.105-.106l45.461-46.289c7.74-7.881 7.625-20.543-.255-28.283-7.881-7.74-20.544-7.625-28.283.255l-45.399 46.226c-3.744 3.733-8.707 5.788-13.98 5.788-5.293 0-10.273-2.071-14.025-5.834l-46.166-46.29c-7.801-7.822-20.465-7.837-28.285-.038-7.821 7.8-7.837 20.463-.038 28.284l46.164 46.287c11.309 11.343 26.349 17.59 42.35 17.59 16.001 0 31.043-6.247 42.351-17.59z" fill="#ff5cf4"/></g></svg>